Video
Format : AVI
Format/Info : Audio Video Interleave
Codec : H264
Duration : 4mn 46s
Bit rate : 4 026 Kbps
Width : 1920 pixels
Height : 816 pixels
Display aspect ratio : 2.35:1
Frame rate mode : Variable
Frame rate : 25.000 fps
Stream size : 138 MiB (88%)

Audio
Format : MP3
Format/Info : MPEG Audio
Codec : MP3
Duration : 4mn 46s
Bit rate : 224 Kbps
Channel(s) : 2 channels
Channel positions : Front: L R
Sampling rate : 44.1 KHz
Compression mode : Lossy
Stream size : 7.66 MiB (11%)


Screnncaps:  http://bayimg.com/DAmNkAAeM